<svg xmlns:xlink="http://www.w3.org/1999/xlink" xmlns="http://www.w3.org/2000/svg" class="css-rt6ihi" viewBox="0 0 90.04068927005463 100.04521878099827" width="90.04068927005463"  height="100.04521878099827" ><g transform="translate(-6.669680156612116, -33.3483970726504) scale(2.2232268955569046)" fill="#323232"><path d="M10.38 46.92 l0 -23.28 l-1.44 -0.42 c-0.48 -0.18 -0.84 -0.66 -0.84 -1.14 l0 -5.94 c0 -0.42 0.42 -1.14 0.9 -1.14 l12.48 0 c0.42 0 0.72 0.48 0.84 0.78 l3.54 8.58 l3.84 -2.88 l0 0.72 l-3.54 2.7 c0.06 0.3 0.12 0.54 0.24 0.72 l3.36 -2.46 c0.06 0.18 0.06 0.42 0.18 0.6 l-3.3 2.46 l0.3 0.72 l3.6 -2.7 s0.42 0.12 0.72 0.18 l-4.08 3.06 l0.84 1.98 l4.14 -3.06 l0 0.54 l0 0.18 l-3.84 2.88 c0 0.18 0.18 0.6 0.24 0.72 l3.6 -2.64 l0 0.54 l0 0.12 l-3.36 2.52 l0 0.06 l0.3 0.72 l3.12 -2.34 l0 0.72 l-2.88 2.16 c0 0.12 0.18 0.54 0.36 0.66 l2.52 -1.92 c0 0.12 0 0.6 0.06 0.72 l-2.46 1.8 l0.3 0.72 l0.06 0 l2.1 -1.56 l0 0.66 l-1.86 1.38 c0 0.24 0.18 0.66 0.3 0.78 l1.56 -1.2 l0 0.72 l-1.32 1.02 c0 0.12 0.12 0.54 0.24 0.72 l1.14 -0.78 l0 0.48 l0 0.18 l-0.9 0.66 c0.06 0.18 0.24 0.6 0.3 0.72 l0.6 -0.42 c0.06 0.18 0.06 0.3 0.06 0.48 c0 0.06 0 0.18 -0.06 0.24 c0 0 -0.3 0.24 -0.36 0.3 l0.3 0.72 l0.12 -0.12 l0 0.42 l0 0.12 l1.02 2.46 l-0.36 -18.78 c0 -0.12 0 -0.12 -0.06 -0.12 c-1.02 -0.3 -2.28 -0.36 -2.28 -1.68 l0 -5.76 c0 -0.48 0.42 -1.2 0.96 -1.2 l10.92 0 c0.48 0 0.9 0.66 0.9 1.08 l0 6 c0 0.54 -0.36 0.96 -0.84 1.14 l-1.5 0.42 l0 30.78 c0 0.54 -0.42 1.2 -0.96 1.2 l-10.02 0 c-0.42 0 -0.78 -0.48 -0.96 -0.84 l-11.04 -26.76 c0 0.66 0.06 3.18 0.18 3.78 c0.06 0.12 0.18 0.42 0.18 0.42 l0 0.06 c-0.06 0 -0.18 0.12 -0.24 0.3 l0 0.84 l0.54 -0.42 c0.06 0.18 0.24 0.54 0.24 0.54 l-0.78 0.6 l0 0.12 l0 0.78 l0.06 0 c0.12 -0.12 0.78 -0.6 1.02 -0.72 c0.06 0.12 0.18 0.36 0.18 0.54 l-1.2 0.9 l0 0.18 l0 0.78 l1.56 -1.14 c0 0.12 0.12 0.42 0.18 0.54 l-1.74 1.32 l0 0.18 c0 0.3 0 0.48 0.06 0.72 l1.98 -1.5 c0.06 0.12 0.24 0.48 0.24 0.6 l-2.22 1.62 l0 0.24 l0 0.72 l2.46 -1.86 c0.12 0.06 0.24 0.42 0.24 0.54 l-2.7 2.04 l0 0.3 s0 0.42 0.06 0.6 l3 -2.22 c0.06 0.12 0.18 0.42 0.18 0.54 l-3.18 2.4 l0 0.96 l3.54 -2.64 l0.18 0.48 c0 0.06 -0.06 0.06 -0.06 0.12 l-3.6 2.7 c-0.06 0 -0.06 0 -0.06 0.06 c0 0.18 0 0.78 0.06 0.9 l3.96 -3 c0.06 0.06 0.18 0.42 0.18 0.6 l-4.14 3.12 l0 0.24 l0 0.9 l0 0.12 l1.2 0.42 l3.78 -2.82 c0.12 0.18 0.3 0.54 0.3 0.54 l-3.42 2.52 c0.18 0.18 0.3 0.36 0.42 0.6 l3.24 -2.34 c0.12 0.12 0.24 0.48 0.24 0.48 l-3.36 2.58 l0 0.9 l3.6 -2.7 c0.12 0.06 0.24 0.36 0.3 0.48 l-3.9 3 l0 3.84 c0 0.54 -0.48 1.2 -1.02 1.2 l-10.86 0 c-0.54 0 -0.96 -0.66 -0.96 -1.14 l0 -6.06 c-0.36 0.12 -0.72 0.36 -0.9 0.72 l-1.86 1.44 l0 -0.78 l4.08 -3.06 l0 0.54 z M4.5 19.380000000000003 l-1.5 1.14 c0.06 -0.48 0.42 -1.14 0.96 -1.14 l0.54 0 z M3 21.479999999999997 l2.76 -2.1 l1.02 0 l-3.78 2.82 l0 -0.72 z M26.82 19.380000000000003 l-1.14 0.84 c0 -0.42 0.66 -0.84 1.14 -0.84 z M25.62 21.96 l0 -0.72 l2.46 -1.86 l0.96 0 z M25.62 22.92 l4.08 -3.12 l0 0.72 l-4.08 3.12 l0 -0.72 z M3 23.880000000000003 l0 -0.72 l4.08 -3.12 l0 0.78 z M3 24.840000000000003 l4.08 -3.12 l0 0.78 l-4.08 3.06 l0 -0.72 z M3 26.46 l4.14 -3.06 c0.06 0 0.3 0.48 0.3 0.54 l-4.26 3.12 c-0.06 0.06 -0.18 -0.48 -0.18 -0.54 l0 -0.06 z M4.44 27.78 l-0.66 -0.18 l4.32 -3.24 c0.36 0 0.72 0.12 0.72 0.12 l0.06 0.06 l-4.32 3.18 c-0.06 0.06 -0.12 0.06 -0.12 0.06 z M27.78 27.96 l4.32 -3.24 l0 0.54 l0 0.18 l-4.08 3.12 l-0.06 -0.12 l0 -0.42 s-0.12 0 -0.18 -0.06 z M5.34 28.08 l4.08 -3.06 l0 0.72 l-4.08 3.12 l0 -0.78 z M5.34 30.54 l0 -0.78 l4.08 -3.06 l0 0.72 z M5.34 32.22 l0 -0.78 l4.08 -3.06 l0 0.72 z M5.34 33.120000000000005 l4.08 -3.06 l0 0.66 l-4.08 3.06 l0 -0.66 z M5.34 34.739999999999995 l4.08 -3.06 l0 0.72 l-4.08 3.06 l0 -0.72 z M5.34 37.14 l0 -0.72 l4.08 -3.06 l0 0.72 z M5.34 38.1 l4.08 -3.06 l0 0.72 l-4.08 3.06 l0 -0.72 z M5.34 39.78 l4.08 -3.06 l0 0.72 l-4.08 3.06 l0 -0.72 z M5.34 42.18 l0 -0.72 l4.08 -3.12 l0 0.78 z M5.34 43.86 l0 -0.72 l4.08 -3.12 l0 0.78 z M5.34 44.82 l4.08 -3.12 l0 0.78 l-4.08 3.06 l0 -0.72 z M18.84 46.38 l4.2 -3.18 c0.06 0.06 0.18 0.42 0.24 0.6 l-4.2 3.12 c-0.12 -0.18 -0.24 -0.54 -0.24 -0.54 z M5.34 47.22 l0 -0.72 l4.08 -3.12 l0 0.72 z M5.34 48.9 l0 -0.78 l4.08 -3.06 l0 0.72 z M20.94 51.480000000000004 l4.2 -3.12 s0.18 0.3 0.24 0.54 l-4.14 3.12 c-0.12 -0.18 -0.3 -0.54 -0.3 -0.54 z M21.72 53.34 l-0.24 -0.6 l4.2 -3.12 c0.12 0.24 0.24 0.54 0.24 0.54 z M3 53.22 l4.08 -3.06 l0 0.72 l-4.08 3.06 l0 -0.72 z M22.2 54.6 l-0.18 -0.54 l4.2 -3.18 c0.06 0.24 0.24 0.54 0.24 0.54 z M3 55.62 l0 -0.72 l4.02 -3 l0.06 -0.06 l0 0.66 z M22.56 55.32 l4.14 -3.12 c0.12 0.18 0.24 0.54 0.24 0.54 l-4.2 3.12 c0 -0.06 -0.18 -0.42 -0.18 -0.54 z M23.1 56.58 l4.2 -3.12 s0.12 0.36 0.12 0.6 l-4.14 3.12 c-0.06 -0.12 -0.18 -0.48 -0.18 -0.6 z M3 56.52 l4.08 -3.06 l0 0.72 l-4.08 3.12 l0 -0.78 z M23.64 57.84 l4.14 -3.06 c0.12 0.18 0.24 0.54 0.24 0.54 l-4.2 3.12 c-0.06 -0.12 -0.18 -0.48 -0.18 -0.6 z M3 58.92 l0 -0.72 l4.02 -3 c0.12 0.18 0.18 0.42 0.18 0.6 c-0.06 0 -0.06 0.06 -0.06 0.06 l-4.08 3.06 l-0.06 0 z M24.12 59.16 l4.14 -3.12 l0.06 0 l0.36 0.36 l-4.26 3.18 c-0.12 -0.06 -0.3 -0.24 -0.3 -0.42 z M3.36 59.64 l4.2 -3.18 c0.12 0 0.24 0.12 0.3 0.12 c0.18 0.06 0.3 0.06 0.48 0.06 l-4.44 3.3 c-0.24 0 -0.42 -0.12 -0.54 -0.3 z M6.12 60 l-1.02 0 l4.5 -3.36 l0.96 0 z M7.38 60 l4.44 -3.36 l0.96 0 l-4.44 3.36 l-0.96 0 z M9.6 60 l4.44 -3.36 l0.96 0 l-4.44 3.36 l-0.96 0 z M25.14 60 l4.5 -3.36 l0.96 0 l-4.44 3.36 l-1.02 0 z M27.42 60 l4.44 -3.36 l0.96 0 l-4.44 3.36 l-0.96 0 z M29.64 60 l4.44 -3.36 l1.02 0 l-4.5 3.36 l-0.96 0 z M32.88 60 l-1.02 0 l4.14 -3.12 l0.06 0 l0 0.72 z M11.82 60 l3.96 -3 l0 0.72 l-3 2.28 l-0.96 0 z M35.1 60 l-0.96 0 l1.92 -1.44 c0 0.24 0 0.66 -0.18 0.84 z M14.88 60 l-0.84 0 l1.74 -1.32 c0 0.6 -0.36 1.32 -0.9 1.32 z" fill="#323232"></path></g></svg>